<svg width="99" height="124" viewBox="0 0 99 124" fill="none" xmlns="http://www.w3.org/2000/svg">
<path d="M23.144 60.1034C24.0811 61.1384 25.0909 62.1149 26.1327 63.0449C31.5974 67.7981 38.1475 71.8005 46.2169 72.3823C46.3637 72.3899 46.5097 72.396 46.6548 72.4005C59.3532 73.001 65.2151 61.5597 74.1565 62.3221C80.9473 62.2197 88.1564 64.6961 94.9206 67.5819C96.1708 68.1286 97.4078 68.6936 98.6192 69.306C97.5705 68.442 96.4725 67.6233 95.3458 66.8274C89.1933 62.5973 82.4322 58.7728 74.3133 57.8846C62.2686 56.4586 55.0681 67.5999 46.8467 66.2423C46.738 66.2389 46.6283 66.2347 46.5174 66.2298C40.4125 65.8839 33.7608 63.7193 27.0441 61.4888C25.7528 61.049 24.4466 60.5971 23.144 60.1034Z" fill="#36656B"/>
<path d="M23.144 69.3452C24.0811 70.3802 25.0909 71.3567 26.1327 72.2867C31.5974 77.0399 38.1475 81.0423 46.2169 81.6242C46.3637 81.6318 46.5097 81.6378 46.6548 81.6424C59.3532 82.2428 65.2151 70.8016 74.1565 71.5639C80.9473 71.4616 88.1564 73.9379 94.9206 76.8237C96.1708 77.3704 97.4078 77.9354 98.6192 78.5479C97.5705 77.6838 96.4725 76.8652 95.3458 76.0692C89.1933 71.8392 82.4322 68.0146 74.3133 67.1265C62.2686 65.7004 55.0681 76.8417 46.8467 75.4841C46.738 75.4807 46.6283 75.4766 46.5174 75.4716C40.4125 75.1258 33.7608 72.9611 27.0441 70.7307C25.7528 70.2908 24.4466 69.8389 23.144 69.3452Z" fill="#36656B"/>
<path d="M23.144 78.587C24.0811 79.6221 25.0909 80.5986 26.1327 81.5286C31.5974 86.2818 38.1475 90.2842 46.2169 90.866C46.3637 90.8736 46.5097 90.8797 46.6548 90.8842C59.3532 91.4847 65.2151 80.0434 74.1565 80.8058C80.9473 80.7034 88.1564 83.1797 94.9206 86.0656C96.1708 86.6123 97.4078 87.1773 98.6192 87.7897C97.5705 86.9256 96.4725 86.107 95.3458 85.3111C89.1933 81.081 82.4322 77.2564 74.3133 76.3683C62.2686 74.9423 55.0681 86.0836 46.8467 84.726C46.738 84.7226 46.6283 84.7184 46.5174 84.7134C40.4125 84.3676 33.7608 82.203 27.0441 79.9725C25.7528 79.5327 24.4466 79.0808 23.144 78.587Z" fill="#36656B"/>
<path d="M98.6194 24.3523C96.3972 20.2009 93.497 16.3945 90.0317 13.0911C87.4305 10.6293 84.4756 8.44968 81.1227 6.86024C81.1227 6.86024 81.1227 6.86024 81.1227 6.86024C67.8589 -0.0769155 50.4322 -2.8243 36.1547 3.72098C20.2589 9.43636 8.80765 24.244 4.01251 39.7846C-2.22593 57.7606 -1.20943 78.292 7.19932 95.4378C12.1228 107.604 24.8354 115.022 36.1724 118.925C50.1234 125.052 66.9829 124.265 80.8785 118.959C80.8785 118.959 80.8785 118.959 80.8785 118.959C84.3932 117.752 87.3791 115.707 89.9619 113.387C93.5357 110.138 96.4269 106.303 98.6194 102.138C95.0427 105.17 91.3695 107.946 87.637 110.368C84.9462 112.096 82.1902 113.628 79.3928 114.583C79.3928 114.583 79.3928 114.583 79.3928 114.583C65.7226 119.664 51.2184 120.346 37.8416 114.616C26.3565 110.504 16.0428 104.557 11.3637 93.435C3.48193 77.3351 2.52403 58.2097 8.38935 41.2666C13.0831 26.3811 23.2066 13.3765 37.8592 8.01607C51.2864 2.03632 66.0425 4.36404 79.1485 11.0382C79.1485 11.0382 79.1485 11.0382 79.1485 11.0382C82.0553 12.4149 84.8784 14.1435 87.6594 16.0256C91.368 18.556 95.0382 21.3219 98.6194 24.3523Z" fill="#36656B"/>
<path d="M92.8064 29.3003C90.9246 25.6138 88.4121 22.2382 85.3784 19.3236C83.1007 17.151 80.4971 15.2362 77.5335 13.8501C77.532 13.8494 77.5305 13.8488 77.5291 13.8481C65.8272 7.80883 50.4021 5.41432 37.7868 11.1191C23.8336 16.0515 13.5989 28.9701 9.35506 42.5761C3.83956 58.2265 4.74892 76.1823 12.1724 91.0922C16.5645 101.789 27.8957 108.24 37.8043 111.607C50.1221 116.945 65.04 116.254 77.2868 111.64C77.2905 111.638 77.2943 111.637 77.298 111.636C80.4138 110.579 83.0495 108.779 85.3143 106.729C88.4483 103.859 90.9514 100.459 92.8064 96.7586C89.5748 99.316 86.2983 101.652 83.0104 103.695C80.6409 105.151 78.2371 106.443 75.8281 107.255C75.8252 107.256 75.8223 107.257 75.8194 107.258C63.7994 111.653 51.1987 112.239 39.4535 107.29C29.3914 103.719 20.4511 98.6972 16.3259 89.0669C9.44028 75.206 8.59322 58.6855 13.7256 44.0766C17.8628 31.1425 26.737 20.0184 39.471 15.4222C51.2409 10.269 64.0389 12.2556 75.5771 18.0365C75.5783 18.0371 75.5796 18.0377 75.5808 18.0382C78.1028 19.2166 80.5726 20.6826 83.0266 22.2747C86.2989 24.4151 89.5732 26.7441 92.8064 29.3003Z" fill="#36656B"/>
<path d="M86.645 34.1242C85.1323 30.9001 83.0382 27.9486 80.4626 25.4117C78.5286 23.5202 76.2948 21.8592 73.7334 20.6664C73.7317 20.6656 73.73 20.6648 73.7283 20.664C63.7086 15.5055 50.3533 13.4425 39.5091 18.3342C27.5245 22.5423 18.6557 33.6542 15.0153 45.3035C10.2719 58.6939 11.0569 74.0934 17.4394 86.8482C21.2258 96.0492 31.0844 101.621 39.5265 104.47C50.0985 109.039 63.0008 108.444 73.4866 104.502C73.4909 104.501 73.4953 104.499 73.4996 104.498C76.2083 103.582 78.4766 102.015 80.4044 100.228C83.0717 97.7249 85.1569 94.751 86.645 91.5141C83.7828 93.6052 80.927 95.5122 78.1073 97.1878C76.0757 98.3821 74.0402 99.4422 72.0348 100.115C72.0315 100.116 72.0283 100.117 72.0251 100.118C61.7664 103.842 51.1692 104.334 41.1693 100.151C32.572 97.0994 25.1016 92.9434 21.5893 84.8156C15.7483 73.1107 15.0267 59.1562 19.3837 46.81C22.9158 35.838 30.4137 26.5176 41.1867 22.6398C51.1872 18.2953 61.9292 19.9541 71.7834 24.8558C71.7848 24.8564 71.7863 24.8571 71.7877 24.8577C73.9088 25.8444 76.0084 27.0574 78.1175 28.368C80.9301 30.1304 83.7834 32.0334 86.645 34.1242Z" fill="#36656B"/>
</svg>
